<svg viewBox="0 0 32 29.6">
    <path d="M1075 4253 c-218 -30 -408 -195 -454 -393 -7 -29 -11 -343 -11 -880
0 -912 -1 -894 58 -1004 36 -68 135 -164 208 -203 135 -71 72 -67 1059 -73
l890 -5 588 -413 c323 -226 590 -412 592 -412 3 0 5 187 5 415 0 324 3 416 13
419 6 2 39 8 72 15 183 34 354 190 400 366 23 89 23 1701 0 1790 -43 164 -179
299 -365 362 -52 17 -126 18 -1540 19 -817 1 -1498 -1 -1515 -3z m3022 -254
c73 -28 144 -97 166 -164 15 -44 17 -128 17 -855 0 -915 4 -867 -80 -951 -71
-71 -130 -89 -290 -89 l-130 0 -2 -314 -3 -314 -447 314 -448 314 -900 0
c-895 0 -900 0 -957 21 -73 28 -144 97 -166 164 -15 44 -17 128 -17 855 0 727
2 811 17 855 22 66 93 136 164 163 54 21 58 21 1536 21 l1482 1 58 -21z"></path>
</svg>